<?xml version="1.0" encoding="UTF-8" standalone="no"?>
<svg
   version="1.0"
   width="1024.000000pt"
   height="1024.000000pt"
   viewBox="0 0 1024.000000 1024.000000"
   preserveAspectRatio="xMidYMid meet"
   id="svg4"
   sodipodi:docname="favicon.svg"
   inkscape:version="1.3 (0e150ed6c4, 2023-07-21)"
   xmlns:inkscape="http://www.inkscape.org/namespaces/inkscape"
   xmlns:sodipodi="http://sodipodi.sourceforge.net/DTD/sodipodi-0.dtd"
   xmlns="http://www.w3.org/2000/svg"
   xmlns:svg="http://www.w3.org/2000/svg">
  <defs
     id="defs4" />
  <sodipodi:namedview
     id="namedview4"
     pagecolor="#505050"
     bordercolor="#eeeeee"
     borderopacity="1"
     inkscape:showpageshadow="0"
     inkscape:pageopacity="0"
     inkscape:pagecheckerboard="0"
     inkscape:deskcolor="#d1d1d1"
     inkscape:document-units="pt"
     inkscape:zoom="0.60864258"
     inkscape:cx="794.39069"
     inkscape:cy="682.66667"
     inkscape:window-width="1920"
     inkscape:window-height="1009"
     inkscape:window-x="1912"
     inkscape:window-y="-8"
     inkscape:window-maximized="1"
     inkscape:current-layer="layer2" />
  <g
     inkscape:groupmode="layer"
     id="layer2"
     inkscape:label="BG">
    <path
       id="rect4"
       style="fill:#ffffff;fill-opacity:1;stroke:#000000;stroke-width:5.87921;stroke-linecap:round;stroke-linejoin:round;stroke-dashoffset:7.8"
       d="M 479.91274,41.475293 C 367.42402,50.751362 271.92001,91.12188 191.17898,163.50138 141.00979,208.57526 97.895657,270.76431 73.072364,333.99839 14.541641,483.46076 33.61541,649.51686 124.28576,779.12061 200.19279,887.5592 318.95273,959.41593 450.64684,976.66158 594.4913,995.47503 738.3364,948.18024 841.54905,848.23382 934.83238,757.82477 985.00261,638.41081 984.87196,507.36994 984.61066,356.86238 912.36085,216.28389 790.07345,128.61846 725.79419,82.499395 651.45511,54.540564 565.09618,43.827354 549.81025,41.867619 493.63088,40.4301 479.91274,41.475293 Z"
       inkscape:export-filename="favicon.png"
       inkscape:export-xdpi="19.646786"
       inkscape:export-ydpi="19.646786" />
  </g>
  <g
     inkscape:groupmode="layer"
     id="layer1"
     inkscape:label="Layer 1" />
  <g
     transform="matrix(0.13064905,0,0,-0.13064905,-157.00139,1181.2581)"
     fill="#000000"
     stroke="none"
     id="g4"
     style="fill:#000000;fill-opacity:1">
    <path
       d="m 5015,7425 c -5,-2 -35,-11 -65,-20 -58,-18 -122,-54 -1085,-614 -379,-220 -641,-378 -674,-407 -68,-60 -126,-149 -152,-234 -19,-63 -19,-91 -17,-1050 l 3,-985 28,-66 c 33,-78 104,-170 167,-217 74,-54 1691,-981 1745,-999 31,-11 81,-18 132,-18 75,0 85,2 106,25 20,20 62,113 154,337 3,7 -25,-1 -62,-18 -78,-37 -177,-48 -251,-30 -54,14 -1571,885 -1634,939 -21,18 -51,58 -67,90 l -28,57 v 905 905 l 27,55 c 15,30 42,70 60,87 31,29 1388,827 1560,916 71,37 84,41 155,41 56,-1 90,-6 123,-21 40,-17 415,-233 1188,-681 128,-74 235,-133 237,-130 2,2 25,50 50,106 55,125 57,152 13,185 -18,14 -262,157 -543,319 -955,553 -906,529 -1069,527 -50,0 -95,-2 -101,-4 z"
       id="path2"
       style="fill:#000000;fill-opacity:1" />
    <path
       d="m 7010,6355 c -52,-119 -532,-1251 -887,-2090 -212,-500 -418,-988 -459,-1083 -41,-96 -74,-178 -74,-182 0,-5 156,83 348,194 191,111 506,294 701,406 439,254 498,304 563,476 l 23,59 3,952 c 3,1053 4,1024 -61,1147 -17,33 -55,85 -84,116 l -51,55 z m -72,-1650 -3,-480 -27,-55 c -15,-30 -44,-72 -65,-92 -32,-31 -652,-403 -658,-396 -3,3 55,139 460,1098 137,322 257,610 269,640 l 21,55 3,-145 c 1,-80 1,-361 0,-625 z"
       id="path3"
       style="fill:#000000;fill-opacity:1" />
    <path
       d="m 5629,6265 c -105,-34 -182,-143 -182,-260 0,-67 30,-149 68,-185 l 23,-21 -35,-72 c -48,-98 -101,-218 -195,-442 -44,-104 -82,-193 -84,-197 -3,-5 -351,211 -382,238 -2,1 6,29 18,61 31,82 37,209 16,306 -26,115 -68,190 -155,278 -80,81 -151,124 -257,155 -70,21 -226,24 -294,5 -205,-57 -362,-215 -415,-416 -18,-69 -20,-192 -4,-267 41,-199 216,-379 419,-433 89,-24 225,-19 317,10 76,24 181,84 217,124 18,20 20,18 202,-102 101,-67 184,-125 184,-128 0,-3 -89,-83 -198,-176 l -197,-171 -61,15 c -174,43 -344,-92 -344,-273 0,-154 128,-284 279,-284 184,0 319,163 280,338 -7,31 -13,60 -14,64 0,3 74,70 165,148 91,78 185,162 210,186 l 46,44 50,-34 c 195,-131 497,-316 517,-316 13,0 31,8 39,18 21,23 58,106 58,130 0,13 -71,64 -256,183 -142,90 -262,167 -268,171 -7,5 -4,19 8,45 10,21 65,153 123,293 57,140 123,294 145,341 l 40,87 44,6 c 161,22 261,189 214,358 -37,131 -205,217 -341,173 z M 4472,5928 c 157,-73 258,-255 229,-415 -59,-314 -420,-440 -651,-226 -224,207 -145,564 145,660 25,8 75,12 130,10 72,-2 101,-8 147,-29 z m 158,-1513 c 79,-41 79,-162 0,-209 -39,-22 -81,-20 -121,7 -122,82 -10,269 121,202 z"
       id="path4"
       style="fill:#000000;fill-opacity:1" />
  </g>
</svg>
